<?xml version="1.0" encoding="utf-8"?>
<!-- Generator: Adobe Illustrator 22.0.1, SVG Export Plug-In . SVG Version: 6.00 Build 0)  -->
<svg version="1.1" id="Layer_1" xmlns="http://www.w3.org/2000/svg" xmlns:xlink="http://www.w3.org/1999/xlink" x="0px" y="0px"
	 viewBox="0 0 792 612" style="enable-background:new 0 0 792 612;" xml:space="preserve">
<path d="M450.8,229.1c0-11.4-9.2-20.6-20.6-20.6h-88.6v26.5h6c4.7,0,4.4,4.4,4.4,4.4l0,141.1c32.9-26.2,66.1-45.6,98.8-59.7V229.1z
	 M441.1,315.8c-6.6,3-13.1,6.2-19.6,9.6v-85.1c0-12-7-14.1-10.4-14.1V331c-6.5,3.6-13,7.5-19.6,11.6l0-102.4c0-12-7-14.1-10.4-14.1
	v123.3c-6.4,4.2-12.9,8.9-19.6,13.9l0-123.1c0-12-7-14.1-10.4-14.1v-8h78.9c6.1,0,11,4.9,11,11V315.8z"/>
</svg>
