<?xml version="1.0" encoding="utf-8"?>
<!-- Generator: Adobe Illustrator 22.0.1, SVG Export Plug-In . SVG Version: 6.00 Build 0)  -->
<svg version="1.1" id="Layer_1" xmlns="http://www.w3.org/2000/svg" xmlns:xlink="http://www.w3.org/1999/xlink" x="0px" y="0px"
	 viewBox="0 0 792 612" style="enable-background:new 0 0 792 612;" xml:space="preserve">
<style type="text/css">
	.st0{fill:#FFFFFF;}
</style>
<g>
	<path class="st0" d="M287.3,282.6v36.8c0,0,12-4.2,12-18.8v-29.8C293,274.2,287.3,277.6,287.3,282.6z"/>
	<path class="st0" d="M507.2,249.5c-3.3,0-6,2.4-6,5.7v10.3h12v-10.3C513.2,251.9,510.5,249.5,507.2,249.5z"/>
	<path class="st0" d="M637,330.5l-3.5-1.8c-1.8-1-3-1.7-3-5.3c0-1.2,0-67.9,0-67.9c0-9.6-4.4-15.2-8-18.4c-8-7-19.6-5.7-20.9-5.6
		v-52.2c-22.8,16.7-45.5,30.8-68,41.8l0,16.2c-3.8-3.7-9.1-6-14.9-6h-23.1c-3.2,0-6.3,0.7-9,2v-2h-10c-4.3,0-8.4,0.7-12.3,2.1
		c-2.1-1.3-4.6-2.1-7.2-2.1l-136.8,0l0,6.7c-3.9-4.1-9.4-6.7-15.5-6.7h-23.1c-6.5,0-12.3,2.9-16.2,7.5c-3.9-4.7-9.9-7.8-16.5-7.8
		h-92v27.5h6.2c4.9,0,4.6,4.6,4.6,4.6v146.5c34.1-27.2,68.6-47.4,102.6-62v-8.5c3,2,6.6,3,10.4,3c6,0,12.3-2.5,18.7-7.4
		c2.6,1.3,5.3,0.3,6.7-0.2c25.2-8.5,51.8-14.4,79.8-17.9l0-3.8c3.3,1.7,7.3,2.6,11.6,2.6c4.1,0,8.5-0.9,12.7-2.5
		c1.8,0.9,3.8,1.3,5.8,1.3c20.2-0.8,40.5-0.3,60.9,1.4l0-8.9c3.4,5.8,9.7,10.1,17.3,11c12.4,1.5,22.4,3.7,24.3,3.7
		c6.3,0,12-2.7,15.9-7.1c2.3,7.1,8.6,12.4,17.9,14.8c46.3,11.9,84.5,30.4,84.5,30.4L637,330.5z M240.1,352.4V264
		c0-12.5-7.3-14.6-10.8-14.6v108.9c-6.7,3.8-13.5,7.8-20.3,12.1l0-106.3c0-12.5-7.3-14.6-10.8-14.6v128c-6.6,4.4-13.4,9.3-20.3,14.4
		V264c0-12.5-7.3-14.6-10.8-14.6v-8.3h82c6.3,0,11.4,5.1,11.4,11.4v0.2c0,0,0,0,0,0l0,89.8C253.5,345.6,246.8,348.9,240.1,352.4z
		 M322.6,319c-6.6,1.8-13.1,3.8-19.8,6c-2,0-3.6-1.6-3.6-3.5v0c-7,7.2-13.4,10.6-18.4,10.6c-6.4,0-10.4-5.4-10.4-15.1v-34.3
		c0-13.6,26.7-14.6,28.7-25.7c0.7-3.6-1.9-7.4-5.5-7.4c-3.5,0-6.4,2.6-6.4,6l0,5.4h-16.9v-8.2c0-6.3,5.1-11.3,11.3-11.3h23.1
		c6.3,0,11.3,5.1,11.3,11.3l0,50.5c0,10.6,6.5,10.6,6.5,10.6L322.6,319z M376.1,307.8c-15,2.1-30.2,5.1-45.7,9.1v-17.1l26.5-50.3
		l-12.5,0c-10.6,0-10.6,6.5-10.6,6.5h-3.4v-6.5l0-8.2h45.7v8.2l-29.4,53.6c26-5.2,26-11.8,26-11.8h3.4L376.1,307.8z M416.3,304.1
		L416.3,304.1c-2,0-3.6-1.6-3.6-3.6c-5,3.1-10.3,4.8-15,4.8c-7.8,0-13.9-4.4-13.9-13.5v-50.5h16.9v54.2c0,0,12,0,12-14.6v-39.5h16.9
		v46.2c0,10.6,6.5,10.6,6.5,10.6l0,5.6C429.5,303.7,422.9,303.8,416.3,304.1z M476.6,258.2c0,0-0.5-0.1-1.3-0.1
		c-3.8,0-14.7,1.8-14.7,21.9v8.3c0,10.4,6.4,10.5,6.5,10.5l0,5.9c-7.6-0.5-15.4-0.9-23.3-1v-48.5c0-10.6-6.5-10.6-6.5-10.6v-3.4
		h19.9c1.9,0,3.5,1.6,3.5,3.5v1.8c4.5-3.2,9.8-5.3,16-5.3V258.2z M530.1,273.6h-28.9l0,25.8c0,0,11.9,3.3,11.9-12.2h17v12.7
		c0,6.3-5.1,11.4-11.3,11.4c-7.5-1.4-15.2-2.6-23.1-3.6c-6.1-0.8-11.3-5.1-11.3-11.4v-43.6c0-6.3,5.1-11.3,11.3-11.3h23.1
		c6.3,0,11.3,5.1,11.3,11.3V273.6z M567,249.5h-6.5V303c0,10.6,6.5,13.8,6.5,13.8l0,5.7c-3.9-1.1-7.9-2.2-12-3.3
		c-6-1.5-11.3-5-11.3-11.3v-58.4h-5.9v-8.2h5.9l0-15.3c5.5-2.9,11.2-6.1,16.9-9.4v24.7l6.5,0V249.5z M603.6,334.6l0-85.1
		c0,0-12,0-12,14.6l0,66.2c-5.3-1.8-11-3.7-16.9-5.5l0-92.4h0v-24.5c5.5-3.5,11.1-7.3,16.9-11.3v48.3c4.5-2.3,9.3-3.5,13.7-3.5
		c8.4,0,15.2,4.4,15.2,14.1l0,69.1c0,10.6,6.5,12.6,6.5,12.6l0,6.9C620.2,341.1,612.4,337.9,603.6,334.6z"/>
</g>
</svg>
