<?xml version="1.0" encoding="utf-8"?>
<!-- Generator: Adobe Illustrator 22.0.1, SVG Export Plug-In . SVG Version: 6.00 Build 0)  -->
<svg version="1.1" id="Layer_1" xmlns="http://www.w3.org/2000/svg" xmlns:xlink="http://www.w3.org/1999/xlink" x="0px" y="0px"
	 viewBox="0 0 792 612" style="enable-background:new 0 0 792 612;" xml:space="preserve">
<g>
	<g>
		<g>
			<g>
				<path d="M358.9,264.4L339,300.7v6.1h34.2l0-11h-2.5c0,0,0,4.9-7.9,4.9l-9.4,0l19.8-36.2v-6.1H339l0,6.1v4.9h2.5
					c0,0,0-4.9,7.9-4.9L358.9,264.4z"/>
			</g>
			<g>
				<path d="M400.7,258.3v31.4c0,11-9,11-9,11v-42.3h-12.6v37.8c0,11.1,11.9,13,21.6,7.9l0,0c0,1.5,1.2,2.7,2.7,2.7h14.8v-2.5
					c0,0-4.9,0-4.9-7.9l0-38H400.7z"/>
			</g>
			<g>
				<path d="M488.6,266.8c0-4.7-3.8-8.5-8.5-8.5h-17.3c-4.7,0-8.5,3.8-8.5,8.5v31.5c0,4.7,3.8,8.5,8.5,8.5h17.3
					c4.7,0,8.5-3.8,8.5-8.5v-6.8h-12.7c-0.9,9.1-8.9,9.1-8.9,9.1l0-18.1h21.6V266.8z M476,276.4h-9v-7.7c0-2.4,2-4.2,4.5-4.2
					c2.5,0,4.5,1.8,4.5,4.2V276.4z"/>
			</g>
			<g>
				<path d="M493.5,258.3c7,0,14.5-7.4,14.5-11h2.5v11h4.9v6.1h-4.9l0,31.9c0,7.9,4.9,7.9,4.9,7.9v2.5h-9c-4.7,0-8.5-3.8-8.5-8.5
					v-33.9h-4.4V258.3z"/>
			</g>
			<g>
				<path d="M521.6,306.8l0-59.4c0-7.9-4.9-7.9-4.9-7.9v-2.5h17.5l0,24.1c9.8-5,21.6-3.2,21.6,7.9v27.4c0,7.9,4.9,7.9,4.9,7.9v2.5
					h-4.9h-12.6v-42.3c0,0-9,0-9,11v31.4H521.6z"/>
			</g>
			<g>
				<path d="M329.3,296.3l0-29.5c0-4.7-3.8-8.5-8.5-8.5h-17.3c-4.7,0-8.5,3.8-8.5,8.5v6.2h12.6l0-4c0-2.6,2.2-4.5,4.8-4.5
					c2.7,0,4.6,2.8,4.1,5.5c-1.5,8.3-21.5,9.1-21.5,19.3v7c0,11.1,11.9,13,21.6,7.9v0c0,1.5,1.2,2.7,2.7,2.7h14.8v-2.5
					C334.2,304.2,329.3,304.2,329.3,296.3z M307.7,300.7v-11.5c0-3.7,4.3-6.3,9-8.8l0,9.3C316.7,300.7,307.7,300.7,307.7,300.7z"/>
			</g>
			<g>
				<path d="M448.6,258.3c-4.7,0-8.7,1.5-12,3.9l0-1.3c0-1.4-1.2-2.6-2.6-2.6h-14.9v2.5c0,0,4.9,0,4.9,7.9v38h17.5v-2.5
					c0,0-4.9,0-4.9-7.9l0-9c0-18.3,12-16.3,12-16.3V258.3z"/>
			</g>
			<g>
				<path d="M285.9,296.5l0-35.8c0-1.3-1.1-2.4-2.4-2.4h-10.3c0,0-4.2,0-6.2,2.5c0-1.4-1.1-2.5-2.5-2.5h-10.1c0,0-4.2,0-6.2,2.5
					c0-1.4-1.1-2.5-2.5-2.5h-10.1h-4.9v2.5c0,0,4.9,0,4.9,7.9v38h12.6l0-36.2c0-5.1,6.2-6.1,6.2-6.1v42.3h12.6l0-36.2
					c0-5.1,6.2-6.1,6.2-6.1v39.9c0,1.4,1.1,2.5,2.5,2.5h10.1h4.9v-2.5C290.7,304.2,285.9,304.2,285.9,296.5z"/>
			</g>
		</g>
		<rect x="235.6" y="313.7" width="325.1" height="5.4"/>
	</g>
	<g>
		<path d="M487.4,329.1l7.5,0c6.3,0,11.5,5.1,11.5,11.5c0,6.3-5.1,11.5-11.5,11.5l-7.5,0V329.1z M494.9,348.9c4.6,0,8.3-3.7,8.3-8.3
			c0-4.6-3.7-8.3-8.3-8.3l-4.3,0v16.7H494.9z"/>
		<rect x="501.7" y="339" transform="matrix(-1.836970e-16 1 -1 -1.836970e-16 853.7484 -172.6296)" width="22.9" height="3.1"/>
		<polygon points="449.9,352 449.9,332.2 442.7,332.2 442.7,329.1 460.4,329.1 460.4,332.2 453.1,332.2 453.1,352 		"/>
		<path d="M472.9,352c-4.4,0-7.9-3.6-7.9-7.9l0-15h3.1l0,15c0,2.6,2.1,4.8,4.8,4.8s4.8-2.1,4.8-4.8l0-15h3.1l0,15
			C480.8,348.5,477.2,352,472.9,352z"/>
		<path d="M531.3,352c-6.3,0-11.5-5.1-11.5-11.5c0-6.3,5.1-11.5,11.5-11.5s11.5,5.1,11.5,11.5C542.8,346.9,537.7,352,531.3,352z
			 M531.3,332.2c-4.6,0-8.3,3.7-8.3,8.3c0,4.6,3.7,8.3,8.3,8.3s8.3-3.7,8.3-8.3C539.7,336,535.9,332.2,531.3,332.2z"/>
		<path d="M431.2,352c-2.5,0-4.9-0.8-6.9-2.3l-0.1-0.1v-4.5l0.6,0.7c1.6,1.9,3.9,3,6.4,3c2.5,0,4.5-1.5,4.5-3.4c0-1.9-1-2.4-4.4-3.2
			c-2.8-0.7-7.1-1.7-7.1-6.7c0-3.6,3.2-6.5,7-6.5c2.1,0,4.2,0.6,6.1,1.7l0.2,0.1v4l-0.6-0.5c-1.6-1.4-3.6-2.2-5.7-2.2
			c-2.1,0-3.9,1.5-3.9,3.4c0,2.3,1.4,2.9,4.7,3.6c1.5,0.4,3.1,0.7,4.4,1.5c1.6,1.1,2.5,2.6,2.5,4.7C438.8,349.1,435.4,352,431.2,352
			z"/>
		<path d="M554.4,352c-2.5,0-4.9-0.8-6.9-2.3l-0.1-0.1v-4.5l0.6,0.7c1.6,1.9,3.9,3,6.4,3c2.5,0,4.5-1.5,4.5-3.4c0-1.9-1-2.4-4.4-3.2
			c-2.8-0.7-7.1-1.7-7.1-6.7c0-3.6,3.2-6.5,7-6.5c2.1,0,4.2,0.6,6.1,1.7l0.2,0.1v4l-0.6-0.5c-1.5-1.4-3.6-2.2-5.7-2.2
			c-2.1,0-3.9,1.5-3.9,3.4c0,2.3,1.4,2.9,4.7,3.6c1.5,0.4,3.1,0.7,4.4,1.5c1.6,1.1,2.5,2.6,2.5,4.7C562.1,349.1,558.6,352,554.4,352
			z"/>
	</g>
</g>
</svg>
