<?xml version="1.0" encoding="utf-8"?>
<!-- Generator: Adobe Illustrator 22.0.1, SVG Export Plug-In . SVG Version: 6.00 Build 0)  -->
<svg version="1.1" id="Layer_1" xmlns="http://www.w3.org/2000/svg" xmlns:xlink="http://www.w3.org/1999/xlink" x="0px" y="0px"
	 viewBox="0 0 792 612" style="enable-background:new 0 0 792 612;" xml:space="preserve">
<style type="text/css">
	.st0{fill:#FFFFFF;}
</style>
<g>
	<path class="st0" d="M450.6,242.9c0-11.4-9.2-20.6-20.6-20.6h-88.6v26.5h6c4.7,0,4.4,4.4,4.4,4.4l0,141.1
		c32.9-26.2,66.1-45.6,98.8-59.7V242.9z M441,329.6c-6.6,3-13.1,6.2-19.6,9.6V254c0-12-7-14.1-10.4-14.1v104.9
		c-6.5,3.6-13,7.5-19.6,11.6l0-102.4c0-12-7-14.1-10.4-14.1v123.3c-6.4,4.2-12.9,8.9-19.6,13.9l0-123.1c0-12-7-14.1-10.4-14.1v-8
		H430c6.1,0,11,4.9,11,11V329.6z"/>
	<path d="M430,212.3h-88.6h-10v10v26.5v10h10h0.4v135.5V415l16.2-13c30.4-24.2,62.9-43.9,96.5-58.3l6.1-2.6v-6.6v-91.7
		C460.6,226,446.9,212.3,430,212.3L430,212.3z"/>
	<path class="st0" d="M430,222.3c11.4,0,20.6,9.2,20.6,20.6v91.7c-32.7,14.1-66,33.5-98.8,59.7V253.1c0,0,0.3-4.4-4.4-4.4h-6v-26.5
		H430 M361.5,377.1c6.7-5,13.2-9.7,19.6-13.9V239.9c3.4,0,10.4,2.1,10.4,14.1l0,102.4c6.5-4.1,13.1-8,19.6-11.6V239.9
		c3.4,0,10.4,2.1,10.4,14.1v85.1c6.5-3.4,13-6.6,19.6-9.6v-86.7c0-6.1-4.9-11-11-11H351v8c3.4,0,10.4,2.1,10.4,14.1L361.5,377.1"/>
</g>
</svg>
