<svg xmlns="http://www.w3.org/2000/svg" xmlns:xlink="http://www.w3.org/1999/xlink" version="1.1" style="enable-background:new 0 0 792 612;" xml:space="preserve" width="480" height="230"><rect id="backgroundrect" width="100%" height="100%" x="0" y="0" fill="none" stroke="none"/>
<style type="text/css">
	.st0{fill:#FFFFFF;}
</style>

<g class="currentLayer" style=""><title>Layer 1</title><g id="svg_1" class="">
	<path class="st0" d="M130.3000915527344,103.29996643066409 v36.8 c0,0 12,-4.2 12,-18.8 v-29.8 C136.00009155273438,94.89996643066405 130.3000915527344,98.29996643066409 130.3000915527344,103.29996643066409 z" id="svg_2"/>
	<path class="st0" d="M350.20009155273436,70.19996643066406 c-3.3,0 -6,2.4 -6,5.7 v10.3 h12 v-10.3 C356.2000915527344,72.59996643066407 353.5000915527344,70.19996643066406 350.20009155273436,70.19996643066406 z" id="svg_3"/>
	<path class="st0" d="M480.0000915527344,151.19996643066406 l-3.5,-1.8 c-1.8,-1 -3,-1.7000000000000002 -3,-5.3 c0,-1.2 0,-67.9 0,-67.9 c0,-9.6 -4.4,-15.2 -8,-18.4 c-8,-7 -19.6,-5.7 -20.9,-5.6 v-52.2 c-22.8,16.7 -45.5,30.8 -68,41.8 l0,16.2 c-3.8,-3.7 -9.1,-6 -14.9,-6 h-23.1 c-3.2,0 -6.3,0.7000000000000001 -9,2 v-2 h-10 c-4.3,0 -8.4,0.7000000000000001 -12.3,2.1 c-2.1,-1.3 -4.6,-2.1 -7.2,-2.1 l-136.8,0 l0,6.7 c-3.9,-4.1 -9.4,-6.7 -15.5,-6.7 h-23.1 c-6.5,0 -12.3,2.9 -16.2,7.5 c-3.9,-4.7 -9.9,-7.8 -16.5,-7.8 h-92 v27.5 h6.2 c4.9,0 4.6,4.6 4.6,4.6 v146.5 c34.1,-27.2 68.6,-47.4 102.6,-62 v-8.5 c3,2 6.6,3 10.4,3 c6,0 12.3,-2.5 18.7,-7.4 c2.6,1.3 5.3,0.30000000000000004 6.7,-0.2 c25.2,-8.5 51.8,-14.4 79.8,-17.9 l0,-3.8 c3.3,1.7000000000000002 7.3,2.6 11.6,2.6 c4.1,0 8.5,-0.9 12.7,-2.5 c1.8,0.9 3.8,1.3 5.8,1.3 c20.2,-0.8 40.5,-0.30000000000000004 60.9,1.4 l0,-8.9 c3.4,5.8 9.7,10.1 17.3,11 c12.4,1.5 22.4,3.7 24.3,3.7 c6.3,0 12,-2.7 15.9,-7.1 c2.3,7.1 8.6,12.4 17.9,14.8 c46.3,11.9 84.5,30.4 84.5,30.4 L480.0000915527344,151.19996643066406 zM83.10009155273437,173.09996643066404 V84.69996643066406 c0,-12.5 -7.3,-14.6 -10.8,-14.6 v108.9 c-6.7,3.8 -13.5,7.8 -20.3,12.1 l0,-106.3 c0,-12.5 -7.3,-14.6 -10.8,-14.6 v128 c-6.6,4.4 -13.4,9.3 -20.3,14.4 V84.69996643066406 c0,-12.5 -7.3,-14.6 -10.8,-14.6 v-8.3 h82 c6.3,0 11.4,5.1 11.4,11.4 v0.2 c0,0 0,0 0,0 l0,89.8 C96.50009155273438,166.29996643066409 89.80009155273439,169.59996643066404 83.10009155273437,173.09996643066404 zM165.6000915527344,139.69996643066406 c-6.6,1.8 -13.1,3.8 -19.8,6 c-2,0 -3.6,-1.6 -3.6,-3.5 v0 c-7,7.2 -13.4,10.6 -18.4,10.6 c-6.4,0 -10.4,-5.4 -10.4,-15.1 v-34.3 c0,-13.6 26.7,-14.6 28.7,-25.7 c0.7000000000000001,-3.6 -1.9,-7.4 -5.5,-7.4 c-3.5,0 -6.4,2.6 -6.4,6 l0,5.4 h-16.9 v-8.2 c0,-6.3 5.1,-11.3 11.3,-11.3 h23.1 c6.3,0 11.3,5.1 11.3,11.3 l0,50.5 c0,10.6 6.5,10.6 6.5,10.6 L165.6000915527344,139.69996643066406 zM219.1000915527344,128.49996643066407 c-15,2.1 -30.2,5.1 -45.7,9.1 v-17.1 l26.5,-50.3 l-12.5,0 c-10.6,0 -10.6,6.5 -10.6,6.5 h-3.4 v-6.5 l0,-8.2 h45.7 v8.2 l-29.4,53.6 c26,-5.2 26,-11.8 26,-11.8 h3.4 L219.1000915527344,128.49996643066407 zM259.3000915527344,124.79996643066409 L259.3000915527344,124.79996643066409 c-2,0 -3.6,-1.6 -3.6,-3.6 c-5,3.1 -10.3,4.8 -15,4.8 c-7.8,0 -13.9,-4.4 -13.9,-13.5 v-50.5 h16.9 v54.2 c0,0 12,0 12,-14.6 v-39.5 h16.9 v46.2 c0,10.6 6.5,10.6 6.5,10.6 l0,5.6 C272.5000915527344,124.39996643066405 265.90009155273435,124.49996643066407 259.3000915527344,124.79996643066409 zM319.6000915527344,78.89996643066405 c0,0 -0.5,-0.1 -1.3,-0.1 c-3.8,0 -14.7,1.8 -14.7,21.9 v8.3 c0,10.4 6.4,10.5 6.5,10.5 l0,5.9 c-7.6,-0.5 -15.4,-0.9 -23.3,-1 v-48.5 c0,-10.6 -6.5,-10.6 -6.5,-10.6 v-3.4 h19.9 c1.9,0 3.5,1.6 3.5,3.5 v1.8 c4.5,-3.2 9.8,-5.3 16,-5.3 V78.89996643066405 zM373.1000915527344,94.29996643066409 h-28.9 l0,25.8 c0,0 11.9,3.3 11.9,-12.2 h17 v12.7 c0,6.3 -5.1,11.4 -11.3,11.4 c-7.5,-1.4 -15.2,-2.6 -23.1,-3.6 c-6.1,-0.8 -11.3,-5.1 -11.3,-11.4 v-43.6 c0,-6.3 5.1,-11.3 11.3,-11.3 h23.1 c6.3,0 11.3,5.1 11.3,11.3 V94.29996643066409 zM410.0000915527344,70.19996643066406 h-6.5 V123.69996643066406 c0,10.6 6.5,13.8 6.5,13.8 l0,5.7 c-3.9,-1.1 -7.9,-2.2 -12,-3.3 c-6,-1.5 -11.3,-5 -11.3,-11.3 v-58.4 h-5.9 v-8.2 h5.9 l0,-15.3 c5.5,-2.9 11.2,-6.1 16.9,-9.4 v24.7 l6.5,0 V70.19996643066406 zM446.6000915527344,155.29996643066409 l0,-85.1 c0,0 -12,0 -12,14.6 l0,66.2 c-5.3,-1.8 -11,-3.7 -16.9,-5.5 l0,-92.4 h0 v-24.5 c5.5,-3.5 11.1,-7.3 16.9,-11.3 v48.3 c4.5,-2.3 9.3,-3.5 13.7,-3.5 c8.4,0 15.2,4.4 15.2,14.1 l0,69.1 c0,10.6 6.5,12.6 6.5,12.6 l0,6.9 C463.2000915527344,161.79996643066409 455.40009155273435,158.59996643066404 446.6000915527344,155.29996643066409 z" id="svg_4"/>
</g></g></svg>