<svg xmlns="http://www.w3.org/2000/svg" xmlns:xlink="http://www.w3.org/1999/xlink" version="1.1" style="enable-background:new 0 0 792 612;" xml:space="preserve" width="129" height="203"><rect id="backgroundrect" width="100%" height="100%" x="0" y="0" fill="none" stroke="none"/>
<style type="text/css">
	.st0{fill:#FFFFFF;}
</style>

<g class="currentLayer" style=""><title>Layer 1</title><g id="svg_1" class="">
	<path class="st0" d="M119.19999847412112,30.60000004768372 c0,-11.4 -9.2,-20.6 -20.6,-20.6 h-88.6 v26.5 h6 c4.7,0 4.4,4.4 4.4,4.4 l0,141.1 c32.9,-26.2 66.1,-45.6 98.8,-59.7 V30.60000004768372 zM109.5999984741211,117.30000004768374 c-6.6,3 -13.1,6.2 -19.6,9.6 V41.700000047683716 c0,-12 -7,-14.1 -10.4,-14.1 v104.9 c-6.5,3.6 -13,7.5 -19.6,11.6 l0,-102.4 c0,-12 -7,-14.1 -10.4,-14.1 v123.3 c-6.4,4.2 -12.9,8.9 -19.6,13.9 l0,-123.1 c0,-12 -7,-14.1 -10.4,-14.1 v-8 H98.5999984741211 c6.1,0 11,4.9 11,11 V117.30000004768374 z" id="svg_2"/>
	<path d="M98.5999984741211,4.768372718899627e-8 h-88.6 h-10 v10 v26.5 v10 h10 h0.4 v135.5 V202.70000004768372 l16.2,-13 c30.4,-24.2 62.9,-43.9 96.5,-58.3 l6.1,-2.6 v-6.6 v-91.7 C129.19999847412112,13.700000047683716 115.49999847412107,4.768372718899627e-8 98.5999984741211,4.768372718899627e-8 L98.5999984741211,4.768372718899627e-8 z" id="svg_3"/>
	<path class="st0" d="M98.5999984741211,10.000000047683727 c11.4,0 20.6,9.2 20.6,20.6 v91.7 c-32.7,14.1 -66,33.5 -98.8,59.7 V40.80000004768371 c0,0 0.3000000000000002,-4.4 -4.4,-4.4 h-6 v-26.5 H98.5999984741211 M30.099998474121094,164.80000004768374 c6.7,-5 13.2,-9.7 19.6,-13.9 V27.60000004768372 c3.4,0 10.4,2.1 10.4,14.1 l0,102.4 c6.5,-4.1 13.1,-8 19.6,-11.6 V27.60000004768372 c3.4,0 10.4,2.1 10.4,14.1 v85.1 c6.5,-3.4 13,-6.6 19.6,-9.6 v-86.7 c0,-6.1 -4.9,-11 -11,-11 H19.599998474121094 v8 c3.4,0 10.4,2.1 10.4,14.1 L30.099998474121094,164.80000004768374 " id="svg_4"/>
</g></g></svg>