<?xml version="1.0" standalone="no"?>
<!DOCTYPE svg PUBLIC "-//W3C//DTD SVG 20010904//EN"
 "http://www.w3.org/TR/2001/REC-SVG-20010904/DTD/svg10.dtd">
<svg version="1.0" xmlns="http://www.w3.org/2000/svg"
 width="812.000000pt" height="812.000000pt" viewBox="0 0 812.000000 812.000000"
 preserveAspectRatio="xMidYMid meet">
<metadata>
Created by potrace 1.11, written by Peter Selinger 2001-2013
</metadata>
<g transform="translate(0.000000,812.000000) scale(0.100000,-0.100000)"
fill="#000000" stroke="none">
<path d="M1480 7190 l0 -930 208 -2 207 -3 0 -3117 c0 -2128 3 -3118 10 -3118
6 0 18 8 27 18 9 9 23 22 30 27 25 19 113 90 124 100 7 6 25 20 40 32 50 38
148 118 160 128 6 6 28 24 49 40 192 152 363 287 375 298 21 19 328 250 347
262 10 6 26 18 37 27 10 10 38 30 60 45 23 15 43 30 46 33 3 4 28 22 55 41 28
18 52 36 55 39 3 3 25 19 50 35 25 17 50 34 55 38 28 22 195 137 199 137 3 0
14 8 25 17 17 16 276 190 355 238 18 11 111 69 207 129 96 60 190 119 209 131
19 12 39 22 44 23 5 0 12 4 15 9 5 8 129 82 250 151 91 51 146 83 161 92 8 5
31 18 50 28 19 10 71 38 115 62 117 65 169 92 280 150 55 29 104 56 110 61 5
5 17 9 26 9 10 0 19 3 21 8 4 9 172 92 187 92 6 0 11 5 11 10 0 6 4 10 9 10 5
0 80 34 166 75 86 41 158 75 160 75 1 0 43 18 92 41 82 39 117 54 203 92 19 8
61 27 93 41 32 14 59 26 61 26 3 0 26 10 53 22 26 12 50 22 53 23 3 1 20 8 38
14 l32 13 0 2043 c0 1784 -2 2053 -15 2123 -44 230 -164 461 -321 617 -92 92
-236 205 -260 205 -4 0 -15 7 -25 16 -9 8 -24 16 -32 18 -8 1 -26 9 -40 19
-15 9 -32 17 -39 17 -8 0 -24 7 -36 16 -12 8 -22 12 -22 8 0 -3 -6 -2 -12 4
-7 6 -17 11 -23 11 -5 1 -28 7 -50 13 -22 6 -80 19 -130 29 -85 17 -208 18
-2122 18 l-2033 1 0 -930z"/>
</g>
</svg>
